<svg xmlns="http://www.w3.org/2000/svg" version="1.1" xmlns:xlink="http://www.w3.org/1999/xlink" xmlns:svgjs="http://svgjs.dev/svgjs" width="2000" height="1364" viewBox="0 0 2000 1364"><g transform="matrix(1,0,0,1,-0.3217474456906757,0.5522267206476954)"><svg viewBox="0 0 362 247" data-background-color="#ffffff" preserveAspectRatio="xMidYMid meet" height="1364" width="2000" xmlns="http://www.w3.org/2000/svg" xmlns:xlink="http://www.w3.org/1999/xlink"><g id="tight-bounds" transform="matrix(1,0,0,1,0.0582362876700131,-0.09999999999999432)"><svg viewBox="0 0 361.88352742466 247.2" height="247.2" width="361.88352742466"><g><svg viewBox="0 0 361.88352742466 247.2" height="247.2" width="361.88352742466"><g><svg viewBox="0 0 361.88352742466 247.2" height="247.2" width="361.88352742466"><g id="textblocktransform"><svg viewBox="0 0 361.88352742466 247.2" height="247.2" width="361.88352742466" id="textblock"><g><svg viewBox="0 0 361.88352742466 247.2" height="247.2" width="361.88352742466"><g transform="matrix(1,0,0,1,0,0)"><svg width="361.88352742466" viewBox="0.18999999999999995 -41.29 65.32 44.94" height="247.2" data-palette-color="#b273e5"><path d="M8.59-0.95L8.59-0.95Q6.64 1 4.88 1L4.88 1Q3.76 1 3.37 0.17L3.37 0.17Q3.93-0.51 3.93-1.88L3.93-1.88 3.93-2.25Q3.93-2.39 3.91-2.51L3.91-2.51Q2.69-3.61 2.69-5.11 2.69-6.62 4.1-8.18L4.1-8.18Q3.69-9.01 3.69-9.95 3.69-10.89 3.97-11.71 4.25-12.52 4.74-13.13L4.74-13.13Q5.76-14.48 6.75-14.48 7.74-14.48 8.15-13.7L8.15-13.7Q7.28-12.77 7.28-10.79 7.28-8.81 7.85-7.35 8.42-5.88 9.47-4.83L9.47-4.83Q11.72-2.54 15.21-2.54L15.21-2.54Q17.55-2.54 19.19-3.88L19.19-3.88Q20.95-5.32 20.95-7.81L20.95-7.81Q20.95-9.57 20.12-10.67L20.12-10.67Q18.82-12.38 16.06-14.28L16.06-14.28Q13.94-15.77 12.67-15.77L12.67-15.77Q11.38-15.77 9.81-14.72L9.81-14.72Q10.23-15.97 10.23-17.04L10.23-17.04Q10.23-17.29 9.77-17.68L9.77-17.68 8.86-18.48Q4.59-22.41 3.81-25.78L3.81-25.78Q3.54-26.95 3.54-28.72 3.54-30.49 4.41-32.31 5.27-34.13 6.79-35.4L6.79-35.4Q9.94-38.09 14.79-38.09L14.79-38.09Q17.75-38.09 20.21-37.13L20.21-37.13Q21.26-36.72 22.61-36.72L22.61-36.72Q23.17-36.72 23.62-36.78 24.07-36.84 24.41-37.28L24.41-37.28Q24.73-37.74 24.73-38.11 24.73-38.48 24.63-38.72L24.63-38.72Q24.8-38.79 25.11-38.79 25.42-38.79 25.78-38.59 26.15-38.38 26.44-38.01L26.44-38.01Q27.1-37.18 27.1-36.15 27.1-35.11 26.51-34.57L26.51-34.57Q27.34-33.84 27.34-32.3L27.34-32.3Q27.34-30.79 26.32-29.76L26.32-29.76Q26.51-29.1 26.51-28.58 26.51-28.05 26.33-27.58 26.15-27.1 25.83-26.76L25.83-26.76Q25.12-26 24.49-26L24.49-26Q23.49-26 22.8-26.34L22.8-26.34Q23.22-27.32 23.22-28.44 23.22-29.57 22.72-30.75 22.22-31.93 21.31-32.81L21.31-32.81Q19.41-34.62 16.33-34.62L16.33-34.62Q14.38-34.62 13.13-33.42L13.13-33.42Q11.96-32.3 11.96-30.71L11.96-30.71Q11.96-29.52 12.55-28.71L12.55-28.71Q13.57-27.32 15.8-25.83L15.8-25.83 16.97-25.05Q17.94-24.44 18.29-24.44 18.63-24.44 18.97-24.51 19.31-24.58 19.73-24.71L19.73-24.71Q20.61-25 21.44-25.54L21.44-25.54 21.12-24.17Q20.97-23.49 20.97-23.17L20.97-23.17Q20.97-22.66 21.48-22.24L21.48-22.24Q26.05-18.29 27.59-15.63L27.59-15.63Q28.93-13.31 28.93-10.62 28.93-7.93 28.05-6.01 27.17-4.08 25.49-2.59L25.49-2.59Q21.78 0.73 15.84 0.73L15.84 0.73Q11.67 0.73 8.59-0.95ZM6.93-30.52L6.93-30.52Q6.01-30.13 6.01-28.49L6.01-28.49Q6.01-25.15 10.47-21.14L10.47-21.14 11.94-19.82Q12.7-19.14 12.61-18.77 12.52-18.41 12.46-18.19 12.4-17.97 12.33-17.77 12.26-17.58 12.23-17.48L12.23-17.48Q13.09-17.99 13.62-17.99L13.62-17.99Q14.7-17.99 15.65-17.41L15.65-17.41Q20.36-14.48 22.05-12.18L22.05-12.18Q23.27-10.5 23.32-7.98L23.32-7.98Q23.32-7.08 23.19-6.47L23.19-6.47Q24.49-7.3 24.49-9.11L24.49-9.11Q24.49-10.86 24.01-11.82 23.54-12.77 22.9-13.51 22.27-14.26 21.25-15.14 20.24-16.02 18.75-17.04L18.75-17.04 15.28-19.41Q11.01-22.22 8.79-25.34L8.79-25.34Q6.84-28.1 6.93-30.52ZM41.62 0.49L41.62 0.49Q40.01 0.49 38.77-0.29L38.77-0.29Q37.52 0.49 36.46 0.49 35.4 0.49 34.71 0.31 34.03 0.12 33.52-0.2L33.52-0.2Q32.47-0.83 32.47-1.78L32.47-1.78Q32.47-2.27 32.74-2.64L32.74-2.64Q33.27-2.22 34.1-2.22L34.1-2.22Q36.28-2.22 37.11-4.08L37.11-4.08 37.11-16.02Q37.11-17.14 36.64-17.68L36.64-17.68Q35.91-18.58 34.13-19.46L34.13-19.46Q35.79-20.21 36.28-20.8L36.28-20.8Q37.11-21.75 37.11-22.95L37.11-22.95 37.11-33.25Q36.28-35.13 34.1-35.13L34.1-35.13Q33.27-35.13 32.74-34.72L32.74-34.72Q32.47-35.08 32.47-35.56 32.47-36.04 32.75-36.45 33.03-36.87 33.52-37.16L33.52-37.16Q34.64-37.84 36.09-37.84 37.55-37.84 38.77-37.04L38.77-37.04Q40.04-37.84 41.6-37.84 43.16-37.84 44.43-37.04L44.43-37.04Q45.8-37.84 46.92-37.84 48.04-37.84 48.73-37.66 49.41-37.48 49.92-37.16L49.92-37.16Q50.97-36.52 50.97-35.57L50.97-35.57Q50.97-35.08 50.71-34.72L50.71-34.72Q50.17-35.13 49.27-35.13 48.36-35.13 47.45-34.66 46.53-34.18 46.09-33.23L46.09-33.23 46.09-22.95Q46.09-21.75 46.6-21.17L46.6-21.17Q47.41-20.21 49.07-19.46L49.07-19.46Q47.29-18.58 46.8-18.02L46.8-18.02Q46.09-17.14 46.09-16.02L46.09-16.02 46.09-5.35Q47.7-2.78 50.12-2.78L50.12-2.78Q56.1-2.78 57.81-7.86L57.81-7.86Q58.57-10.11 58.57-11.98 58.57-13.84 58.05-14.48L58.05-14.48Q58.62-14.94 59.21-14.94 59.81-14.94 60.32-14.7 60.84-14.45 61.25-13.96L61.25-13.96Q62.11-12.96 62.11-11.6 62.11-10.23 61.89-9.5L61.89-9.5Q63.01-8.57 63.01-6.88 63.01-5.2 62.06-4.15L62.06-4.15Q62.86-3.13 62.86-2.29 62.86-1.46 62.63-0.87 62.4-0.27 61.98 0.2L61.98 0.2Q61.06 1.15 59.76 1.15L59.76 1.15Q59.13 1.15 58.59 0.88L58.59 0.88Q58.69 0.34 58.69-0.2L58.69-0.2Q58.69-1.32 57.66-1.32L57.66-1.32Q56.91-1.32 55.56-0.71L55.56-0.71Q52.98 0.49 49.67 0.49 46.36 0.49 44.5-0.37L44.5-0.37Q43.23 0.49 41.62 0.49ZM39.45-9.64L39.45-6.47Q40.67-6.93 40.79-9.67L40.79-9.67Q40.94-12.4 40.94-17.24 40.94-22.07 40.93-23.67 40.92-25.27 40.89-26.25L40.89-26.25Q40.82-29.13 40.34-29.72 39.87-30.32 39.45-30.52L39.45-30.52Q39.45-22.02 39.16-20.85L39.16-20.85Q38.82-19.87 37.5-19.46L37.5-19.46Q38.96-18.95 39.16-18.21L39.16-18.21Q39.45-17.04 39.45-9.64L39.45-9.64Z" opacity="1" transform="matrix(1,0,0,1,0,0)" fill="#b273e5" class="wordmark-text-0" data-fill-palette-color="primary" id="text-0"></path></svg></g></svg></g></svg></g></svg></g></svg></g><defs></defs></svg><rect width="361.88352742466" height="247.2" fill="none" stroke="none" visibility="hidden"></rect></g></svg></g></svg>